<svg xmlns="http://www.w3.org/2000/svg" viewBox="0 0 800 1000" width="800" height="1000" role="img">
  
  <defs>
    <linearGradient id="bg-bahar-al-ain2" x1="0" y1="0" x2="0.3" y2="1">
      <stop offset="0" stop-color="#1D1E23"/>
      <stop offset="1" stop-color="#0B0B0D"/>
    </linearGradient>
    <radialGradient id="glow-bahar-al-ain2" cx="0.5" cy="0.4" r="0.58">
      <stop offset="0" stop-color="#3D3E46" stop-opacity="0.8"/>
      <stop offset="1" stop-color="#3D3E46" stop-opacity="0"/>
    </radialGradient>
    <linearGradient id="liq-bahar-al-ain2" x1="0" y1="0" x2="0.25" y2="1">
      <stop offset="0" stop-color="#D9D3AE"/>
      <stop offset="0.45" stop-color="#8E8A55"/>
      <stop offset="1" stop-color="#565430"/>
    </linearGradient>
    <linearGradient id="empty-bahar-al-ain2" x1="0" y1="0" x2="0.3" y2="1">
      <stop offset="0" stop-color="#D9D3AE" stop-opacity="0.34"/>
      <stop offset="1" stop-color="#8E8A55" stop-opacity="0.42"/>
    </linearGradient>
    <linearGradient id="glass-bahar-al-ain2" x1="0" y1="0" x2="1" y2="0">
      <stop offset="0" stop-color="#ffffff" stop-opacity="0.34"/>
      <stop offset="0.14" stop-color="#ffffff" stop-opacity="0.05"/>
      <stop offset="0.62" stop-color="#000000" stop-opacity="0.04"/>
      <stop offset="0.9" stop-color="#000000" stop-opacity="0.2"/>
      <stop offset="1" stop-color="#ffffff" stop-opacity="0.16"/>
    </linearGradient>
    <linearGradient id="cap-bahar-al-ain2" x1="0" y1="0" x2="1" y2="0.25">
      <stop offset="0" stop-color="#6B4527"/>
      <stop offset="0.16" stop-color="#A9754A"/>
      <stop offset="0.42" stop-color="#E6C69F"/>
      <stop offset="0.72" stop-color="#A9754A"/>
      <stop offset="1" stop-color="#6B4527"/>
    </linearGradient>
    <linearGradient id="neck-bahar-al-ain2" x1="0" y1="0" x2="1" y2="0">
      <stop offset="0" stop-color="#ffffff" stop-opacity="0.3"/>
      <stop offset="0.35" stop-color="#D9D3AE" stop-opacity="0.35"/>
      <stop offset="1" stop-color="#565430" stop-opacity="0.35"/>
    </linearGradient>
    <linearGradient id="fade-bahar-al-ain2" x1="0" y1="0" x2="0" y2="1">
      <stop offset="0" stop-color="#ffffff" stop-opacity="0.55"/>
      <stop offset="1" stop-color="#ffffff" stop-opacity="0"/>
    </linearGradient>
    <mask id="reflect-bahar-al-ain2">
      <rect x="-1000" y="-1000" width="2000" height="2000" fill="url(#fade-bahar-al-ain2)"/>
    </mask>
    <filter id="soft-bahar-al-ain2" x="-60%" y="-60%" width="220%" height="220%">
      <feGaussianBlur stdDeviation="16"/>
    </filter>
  </defs>
  <rect width="800" height="1000" fill="url(#bg-bahar-al-ain2)"/>
  <rect width="800" height="1000" fill="url(#glow-bahar-al-ain2)" opacity="0.45"/>
  <circle cx="400" cy="471.6433566433567" r="424.8251748251748" fill="none" stroke="#C2A16B" stroke-opacity="0.28"/>
         <circle cx="400" cy="471.6433566433567" r="519.2307692307692" fill="none" stroke="#C2A16B" stroke-opacity="0.12"/>
  <rect y="865" width="800" height="135" fill="#212226" opacity="0.45"/>
  <path d="M 0 865 L 800 865" stroke="#212226" stroke-opacity="0.8"/>
  
  <ellipse cx="400" cy="869" rx="226.57342657342656" ry="34.61538461538461"
           fill="#040405" opacity="0.65" filter="url(#soft-bahar-al-ain2)"/>
  <g mask="url(#reflect-bahar-al-ain2)" opacity="0.16" transform="translate(400 865) scale(1.5734265734265733 -0.6608391608391607)">
    
    <clipPath id="clip-bahar-al-ain2"><path d="M -104 -12 L -104 -394 Q -104 -410 -88 -410 L 88 -410 Q 104 -410 104 -394 L 104 -12 Q 104 0 88 0 L -88 0 Q -104 0 -104 -12 Z"/></clipPath>

    <!-- العنق -->
    <rect x="-27" y="-448" width="54" height="52" fill="url(#neck-bahar-al-ain2)"/>
    <rect x="-27" y="-448" width="4" height="52" fill="#ffffff" opacity="0.35"/>

    <!-- الغطاء -->
    <rect x="-42" y="-566" width="84" height="118" rx="3" fill="url(#cap-bahar-al-ain2)"/>
    <rect x="-42" y="-562" width="84" height="3" fill="#ffffff" opacity="0.28"/>
    <rect x="-47" y="-460" width="94" height="12" rx="2" fill="url(#cap-bahar-al-ain2)"/>

    <!-- الزجاج والعطر -->
    <path d="M -104 -12 L -104 -394 Q -104 -410 -88 -410 L 88 -410 Q 104 -410 104 -394 L 104 -12 Q 104 0 88 0 L -88 0 Q -104 0 -104 -12 Z" fill="url(#empty-bahar-al-ain2)"/>
    <g clip-path="url(#clip-bahar-al-ain2)">
      <rect x="-260" y="-352.6" width="520" height="392.6" fill="url(#liq-bahar-al-ain2)"/>
      <ellipse cx="0" cy="-352.6" rx="104" ry="7" fill="#ffffff" opacity="0.18"/>
      <ellipse cx="-45.76" cy="-172.2" rx="41.6" ry="98.39999999999999" fill="#ffffff" opacity="0.1"/>
    </g>
    <path d="M -104 -12 L -104 -394 Q -104 -410 -88 -410 L 88 -410 Q 104 -410 104 -394 L 104 -12 Q 104 0 88 0 L -88 0 Q -104 0 -104 -12 Z" fill="url(#glass-bahar-al-ain2)"/>
    <path d="M -104 -12 L -104 -394 Q -104 -410 -88 -410 L 88 -410 Q 104 -410 104 -394 L 104 -12 Q 104 0 88 0 L -88 0 Q -104 0 -104 -12 Z" fill="none" stroke="#ffffff" stroke-opacity="0.28" stroke-width="1.4"/>

    <!-- انعكاسات -->
    <g clip-path="url(#clip-bahar-al-ain2)">
      <rect x="-74.88" y="-384" width="11" height="340" rx="5.5" fill="#ffffff" opacity="0.3"/>
      <rect x="-58.24000000000001" y="-356" width="5" height="260" rx="2.5" fill="#ffffff" opacity="0.18"/>
      <rect x="62.4" y="-370" width="6" height="300" rx="3" fill="#ffffff" opacity="0.12"/>
    </g>

    
  </g>
  <g transform="translate(400 865) scale(1.5734265734265733)">
    
    <clipPath id="clip-bahar-al-ain2"><path d="M -104 -12 L -104 -394 Q -104 -410 -88 -410 L 88 -410 Q 104 -410 104 -394 L 104 -12 Q 104 0 88 0 L -88 0 Q -104 0 -104 -12 Z"/></clipPath>

    <!-- العنق -->
    <rect x="-27" y="-448" width="54" height="52" fill="url(#neck-bahar-al-ain2)"/>
    <rect x="-27" y="-448" width="4" height="52" fill="#ffffff" opacity="0.35"/>

    <!-- الغطاء -->
    <rect x="-42" y="-566" width="84" height="118" rx="3" fill="url(#cap-bahar-al-ain2)"/>
    <rect x="-42" y="-562" width="84" height="3" fill="#ffffff" opacity="0.28"/>
    <rect x="-47" y="-460" width="94" height="12" rx="2" fill="url(#cap-bahar-al-ain2)"/>

    <!-- الزجاج والعطر -->
    <path d="M -104 -12 L -104 -394 Q -104 -410 -88 -410 L 88 -410 Q 104 -410 104 -394 L 104 -12 Q 104 0 88 0 L -88 0 Q -104 0 -104 -12 Z" fill="url(#empty-bahar-al-ain2)"/>
    <g clip-path="url(#clip-bahar-al-ain2)">
      <rect x="-260" y="-352.6" width="520" height="392.6" fill="url(#liq-bahar-al-ain2)"/>
      <ellipse cx="0" cy="-352.6" rx="104" ry="7" fill="#ffffff" opacity="0.18"/>
      <ellipse cx="-45.76" cy="-172.2" rx="41.6" ry="98.39999999999999" fill="#ffffff" opacity="0.1"/>
    </g>
    <path d="M -104 -12 L -104 -394 Q -104 -410 -88 -410 L 88 -410 Q 104 -410 104 -394 L 104 -12 Q 104 0 88 0 L -88 0 Q -104 0 -104 -12 Z" fill="url(#glass-bahar-al-ain2)"/>
    <path d="M -104 -12 L -104 -394 Q -104 -410 -88 -410 L 88 -410 Q 104 -410 104 -394 L 104 -12 Q 104 0 88 0 L -88 0 Q -104 0 -104 -12 Z" fill="none" stroke="#ffffff" stroke-opacity="0.28" stroke-width="1.4"/>

    <!-- انعكاسات -->
    <g clip-path="url(#clip-bahar-al-ain2)">
      <rect x="-74.88" y="-384" width="11" height="340" rx="5.5" fill="#ffffff" opacity="0.3"/>
      <rect x="-58.24000000000001" y="-356" width="5" height="260" rx="2.5" fill="#ffffff" opacity="0.18"/>
      <rect x="62.4" y="-370" width="6" height="300" rx="3" fill="#ffffff" opacity="0.12"/>
    </g>

    
  </g>
</svg>
