<svg xmlns="http://www.w3.org/2000/svg" viewBox="0 0 800 1000" width="800" height="1000" role="img">
  
  <defs>
    <linearGradient id="bg-sada-al-arz3" x1="0" y1="0" x2="0.3" y2="1">
      <stop offset="0" stop-color="#F4ECDF"/>
      <stop offset="1" stop-color="#E0D0B8"/>
    </linearGradient>
    <radialGradient id="glow-sada-al-arz3" cx="0.5" cy="0.4" r="0.58">
      <stop offset="0" stop-color="#FFF9EC" stop-opacity="0.8"/>
      <stop offset="1" stop-color="#FFF9EC" stop-opacity="0"/>
    </radialGradient>
    <linearGradient id="liq-sada-al-arz3" x1="0" y1="0" x2="0.25" y2="1">
      <stop offset="0" stop-color="#BFCBB6"/>
      <stop offset="0.45" stop-color="#6C8069"/>
      <stop offset="1" stop-color="#3D4E3F"/>
    </linearGradient>
    <linearGradient id="empty-sada-al-arz3" x1="0" y1="0" x2="0.3" y2="1">
      <stop offset="0" stop-color="#BFCBB6" stop-opacity="0.34"/>
      <stop offset="1" stop-color="#6C8069" stop-opacity="0.42"/>
    </linearGradient>
    <linearGradient id="glass-sada-al-arz3" x1="0" y1="0" x2="1" y2="0">
      <stop offset="0" stop-color="#ffffff" stop-opacity="0.34"/>
      <stop offset="0.14" stop-color="#ffffff" stop-opacity="0.05"/>
      <stop offset="0.62" stop-color="#000000" stop-opacity="0.04"/>
      <stop offset="0.9" stop-color="#000000" stop-opacity="0.2"/>
      <stop offset="1" stop-color="#ffffff" stop-opacity="0.16"/>
    </linearGradient>
    <linearGradient id="cap-sada-al-arz3" x1="0" y1="0" x2="1" y2="0.25">
      <stop offset="0" stop-color="#0D0E10"/>
      <stop offset="0.16" stop-color="#26272C"/>
      <stop offset="0.42" stop-color="#5A5B62"/>
      <stop offset="0.72" stop-color="#26272C"/>
      <stop offset="1" stop-color="#0D0E10"/>
    </linearGradient>
    <linearGradient id="neck-sada-al-arz3" x1="0" y1="0" x2="1" y2="0">
      <stop offset="0" stop-color="#ffffff" stop-opacity="0.3"/>
      <stop offset="0.35" stop-color="#BFCBB6" stop-opacity="0.35"/>
      <stop offset="1" stop-color="#3D4E3F" stop-opacity="0.35"/>
    </linearGradient>
    <linearGradient id="fade-sada-al-arz3" x1="0" y1="0" x2="0" y2="1">
      <stop offset="0" stop-color="#ffffff" stop-opacity="0.55"/>
      <stop offset="1" stop-color="#ffffff" stop-opacity="0"/>
    </linearGradient>
    <mask id="reflect-sada-al-arz3">
      <rect x="-1000" y="-1000" width="2000" height="2000" fill="url(#fade-sada-al-arz3)"/>
    </mask>
    <filter id="soft-sada-al-arz3" x="-60%" y="-60%" width="220%" height="220%">
      <feGaussianBlur stdDeviation="16"/>
    </filter>
  </defs>
  <rect width="800" height="1000" fill="url(#bg-sada-al-arz3)"/>
  <rect width="800" height="1000" fill="url(#glow-sada-al-arz3)" opacity="0.7"/>
  
  <rect y="840" width="800" height="160" fill="#CFBC9D" opacity="0.3"/>
  <path d="M 0 840 L 800 840" stroke="#CFBC9D" stroke-opacity="0.7"/>
  <g transform="translate(530.5 840) scale(1.05)">
           <rect x="-82" y="-306" width="164" height="306" rx="2" fill="#0D0E10" opacity="0.14"/>
           <rect x="-82" y="-306" width="164" height="306" rx="2" fill="none" stroke="#26272C" stroke-opacity="0.5"/>
           <path d="M -18 -186 L 0 -168 L 18 -186 L 0 -204 Z" fill="none" stroke="#26272C" stroke-opacity="0.75" stroke-width="1.4"/>
           <path d="M -34 -140 L 34 -140" stroke="#26272C" stroke-opacity="0.35"/>
         </g>
  <ellipse cx="310" cy="844" rx="151.20000000000002" ry="23.1"
           fill="#9E8B70" opacity="0.5" filter="url(#soft-sada-al-arz3)"/>
  <g mask="url(#reflect-sada-al-arz3)" opacity="0.16" transform="translate(310 840) scale(1.05 -0.441)">
    
    <clipPath id="clip-sada-al-arz3"><path d="M -104 -12 L -104 -394 Q -104 -410 -88 -410 L 88 -410 Q 104 -410 104 -394 L 104 -12 Q 104 0 88 0 L -88 0 Q -104 0 -104 -12 Z"/></clipPath>

    <!-- العنق -->
    <rect x="-27" y="-448" width="54" height="52" fill="url(#neck-sada-al-arz3)"/>
    <rect x="-27" y="-448" width="4" height="52" fill="#ffffff" opacity="0.35"/>

    <!-- الغطاء -->
    <rect x="-42" y="-566" width="84" height="118" rx="3" fill="url(#cap-sada-al-arz3)"/>
    <rect x="-42" y="-562" width="84" height="3" fill="#ffffff" opacity="0.28"/>
    <rect x="-47" y="-460" width="94" height="12" rx="2" fill="url(#cap-sada-al-arz3)"/>

    <!-- الزجاج والعطر -->
    <path d="M -104 -12 L -104 -394 Q -104 -410 -88 -410 L 88 -410 Q 104 -410 104 -394 L 104 -12 Q 104 0 88 0 L -88 0 Q -104 0 -104 -12 Z" fill="url(#empty-sada-al-arz3)"/>
    <g clip-path="url(#clip-sada-al-arz3)">
      <rect x="-260" y="-352.6" width="520" height="392.6" fill="url(#liq-sada-al-arz3)"/>
      <ellipse cx="0" cy="-352.6" rx="104" ry="7" fill="#ffffff" opacity="0.18"/>
      <ellipse cx="-45.76" cy="-172.2" rx="41.6" ry="98.39999999999999" fill="#ffffff" opacity="0.1"/>
    </g>
    <path d="M -104 -12 L -104 -394 Q -104 -410 -88 -410 L 88 -410 Q 104 -410 104 -394 L 104 -12 Q 104 0 88 0 L -88 0 Q -104 0 -104 -12 Z" fill="url(#glass-sada-al-arz3)"/>
    <path d="M -104 -12 L -104 -394 Q -104 -410 -88 -410 L 88 -410 Q 104 -410 104 -394 L 104 -12 Q 104 0 88 0 L -88 0 Q -104 0 -104 -12 Z" fill="none" stroke="#ffffff" stroke-opacity="0.28" stroke-width="1.4"/>

    <!-- انعكاسات -->
    <g clip-path="url(#clip-sada-al-arz3)">
      <rect x="-74.88" y="-384" width="11" height="340" rx="5.5" fill="#ffffff" opacity="0.3"/>
      <rect x="-58.24000000000001" y="-356" width="5" height="260" rx="2.5" fill="#ffffff" opacity="0.18"/>
      <rect x="62.4" y="-370" width="6" height="300" rx="3" fill="#ffffff" opacity="0.12"/>
    </g>

    
  <g opacity="0.92">
    <rect x="-42" y="-278" width="84" height="96"
          rx="2" fill="none" stroke="#FDF8EC" stroke-opacity="0.5"/>
    <path d="M 0 -250 L 15 -233 L 0 -216 L -15 -233 Z"
          fill="none" stroke="#FDF8EC" stroke-opacity="0.9" stroke-width="1.5"/>
    <path d="M -22 -204 L 22 -204" stroke="#FDF8EC" stroke-opacity="0.45" stroke-width="1.2"/>
  </g>
  </g>
  <g transform="translate(310 840) scale(1.05)">
    
    <clipPath id="clip-sada-al-arz3"><path d="M -104 -12 L -104 -394 Q -104 -410 -88 -410 L 88 -410 Q 104 -410 104 -394 L 104 -12 Q 104 0 88 0 L -88 0 Q -104 0 -104 -12 Z"/></clipPath>

    <!-- العنق -->
    <rect x="-27" y="-448" width="54" height="52" fill="url(#neck-sada-al-arz3)"/>
    <rect x="-27" y="-448" width="4" height="52" fill="#ffffff" opacity="0.35"/>

    <!-- الغطاء -->
    <rect x="-42" y="-566" width="84" height="118" rx="3" fill="url(#cap-sada-al-arz3)"/>
    <rect x="-42" y="-562" width="84" height="3" fill="#ffffff" opacity="0.28"/>
    <rect x="-47" y="-460" width="94" height="12" rx="2" fill="url(#cap-sada-al-arz3)"/>

    <!-- الزجاج والعطر -->
    <path d="M -104 -12 L -104 -394 Q -104 -410 -88 -410 L 88 -410 Q 104 -410 104 -394 L 104 -12 Q 104 0 88 0 L -88 0 Q -104 0 -104 -12 Z" fill="url(#empty-sada-al-arz3)"/>
    <g clip-path="url(#clip-sada-al-arz3)">
      <rect x="-260" y="-352.6" width="520" height="392.6" fill="url(#liq-sada-al-arz3)"/>
      <ellipse cx="0" cy="-352.6" rx="104" ry="7" fill="#ffffff" opacity="0.18"/>
      <ellipse cx="-45.76" cy="-172.2" rx="41.6" ry="98.39999999999999" fill="#ffffff" opacity="0.1"/>
    </g>
    <path d="M -104 -12 L -104 -394 Q -104 -410 -88 -410 L 88 -410 Q 104 -410 104 -394 L 104 -12 Q 104 0 88 0 L -88 0 Q -104 0 -104 -12 Z" fill="url(#glass-sada-al-arz3)"/>
    <path d="M -104 -12 L -104 -394 Q -104 -410 -88 -410 L 88 -410 Q 104 -410 104 -394 L 104 -12 Q 104 0 88 0 L -88 0 Q -104 0 -104 -12 Z" fill="none" stroke="#ffffff" stroke-opacity="0.28" stroke-width="1.4"/>

    <!-- انعكاسات -->
    <g clip-path="url(#clip-sada-al-arz3)">
      <rect x="-74.88" y="-384" width="11" height="340" rx="5.5" fill="#ffffff" opacity="0.3"/>
      <rect x="-58.24000000000001" y="-356" width="5" height="260" rx="2.5" fill="#ffffff" opacity="0.18"/>
      <rect x="62.4" y="-370" width="6" height="300" rx="3" fill="#ffffff" opacity="0.12"/>
    </g>

    
  <g opacity="0.92">
    <rect x="-42" y="-278" width="84" height="96"
          rx="2" fill="none" stroke="#FDF8EC" stroke-opacity="0.5"/>
    <path d="M 0 -250 L 15 -233 L 0 -216 L -15 -233 Z"
          fill="none" stroke="#FDF8EC" stroke-opacity="0.9" stroke-width="1.5"/>
    <path d="M -22 -204 L 22 -204" stroke="#FDF8EC" stroke-opacity="0.45" stroke-width="1.2"/>
  </g>
  </g>
</svg>
