<svg xmlns="http://www.w3.org/2000/svg" viewBox="0 0 900 1125" width="900" height="1125" role="img">
  
  <defs>
    <linearGradient id="bg-hero" x1="0" y1="0" x2="0.3" y2="1">
      <stop offset="0" stop-color="#26272C"/>
      <stop offset="1" stop-color="#111114"/>
    </linearGradient>
    <radialGradient id="glow-hero" cx="0.5" cy="0.4" r="0.58">
      <stop offset="0" stop-color="#4A4B54" stop-opacity="0.8"/>
      <stop offset="1" stop-color="#4A4B54" stop-opacity="0"/>
    </radialGradient>
    <linearGradient id="liq-hero" x1="0" y1="0" x2="0.25" y2="1">
      <stop offset="0" stop-color="#F2C583"/>
      <stop offset="0.45" stop-color="#C0842F"/>
      <stop offset="1" stop-color="#7C4A11"/>
    </linearGradient>
    <linearGradient id="empty-hero" x1="0" y1="0" x2="0.3" y2="1">
      <stop offset="0" stop-color="#F2C583" stop-opacity="0.34"/>
      <stop offset="1" stop-color="#C0842F" stop-opacity="0.42"/>
    </linearGradient>
    <linearGradient id="glass-hero" x1="0" y1="0" x2="1" y2="0">
      <stop offset="0" stop-color="#ffffff" stop-opacity="0.34"/>
      <stop offset="0.14" stop-color="#ffffff" stop-opacity="0.05"/>
      <stop offset="0.62" stop-color="#000000" stop-opacity="0.04"/>
      <stop offset="0.9" stop-color="#000000" stop-opacity="0.2"/>
      <stop offset="1" stop-color="#ffffff" stop-opacity="0.16"/>
    </linearGradient>
    <linearGradient id="cap-hero" x1="0" y1="0" x2="1" y2="0.25">
      <stop offset="0" stop-color="#8A6B35"/>
      <stop offset="0.16" stop-color="#C7A461"/>
      <stop offset="0.42" stop-color="#F2E2BC"/>
      <stop offset="0.72" stop-color="#C7A461"/>
      <stop offset="1" stop-color="#8A6B35"/>
    </linearGradient>
    <linearGradient id="neck-hero" x1="0" y1="0" x2="1" y2="0">
      <stop offset="0" stop-color="#ffffff" stop-opacity="0.3"/>
      <stop offset="0.35" stop-color="#F2C583" stop-opacity="0.35"/>
      <stop offset="1" stop-color="#7C4A11" stop-opacity="0.35"/>
    </linearGradient>
    <linearGradient id="fade-hero" x1="0" y1="0" x2="0" y2="1">
      <stop offset="0" stop-color="#ffffff" stop-opacity="0.55"/>
      <stop offset="1" stop-color="#ffffff" stop-opacity="0"/>
    </linearGradient>
    <mask id="reflect-hero">
      <rect x="-1000" y="-1000" width="2000" height="2000" fill="url(#fade-hero)"/>
    </mask>
    <filter id="soft-hero" x="-60%" y="-60%" width="220%" height="220%">
      <feGaussianBlur stdDeviation="16"/>
    </filter>
  </defs>
  <rect width="900" height="1125" fill="url(#bg-hero)"/>
  <rect width="900" height="1125" fill="url(#glow-hero)" opacity="0.45"/>
  <circle cx="450" cy="536.9005102040817" r="471.12244897959187" fill="none" stroke="#C2A16B" stroke-opacity="0.28"/>
         <circle cx="450" cy="536.9005102040817" r="575.8163265306123" fill="none" stroke="#C2A16B" stroke-opacity="0.12"/>
  <rect y="973.125" width="900" height="151.875" fill="#2A2B31" opacity="0.45"/>
  <path d="M 0 973.125 L 900 973.125" stroke="#2A2B31" stroke-opacity="0.8"/>
  
  <ellipse cx="450" cy="977.125" rx="300.12244897959187" ry="38.38775510204082"
           fill="#050506" opacity="0.65" filter="url(#soft-hero)"/>
  <g mask="url(#reflect-hero)" opacity="0.16" transform="translate(450 973.125) scale(1.7448979591836735 -0.7328571428571429)">
    
    <clipPath id="clip-hero"><path d="M -132 0 L -132 -196 Q -132 -300 0 -352 Q 132 -300 132 -196 L 132 0 Z"/></clipPath>

    <!-- العنق -->
    <rect x="-32" y="-392" width="64" height="54" fill="url(#neck-hero)"/>
    <rect x="-32" y="-392" width="4" height="54" fill="#ffffff" opacity="0.35"/>

    <!-- الغطاء -->
    <path d="M -48 -392 L 48 -392 L 37.44 -484 Q 37.44 -490 31.439999999999998 -490 L -31.439999999999998 -490 Q -37.44 -490 -37.44 -484 Z" fill="url(#cap-hero)"/>
    <rect x="-48" y="-480" width="96" height="3" fill="#ffffff" opacity="0.28"/>
    <rect x="-53" y="-404" width="106" height="12" rx="2" fill="url(#cap-hero)"/>

    <!-- الزجاج والعطر -->
    <path d="M -132 0 L -132 -196 Q -132 -300 0 -352 Q 132 -300 132 -196 L 132 0 Z" fill="url(#empty-hero)"/>
    <g clip-path="url(#clip-hero)">
      <rect x="-260" y="-302.72" width="520" height="342.72" fill="url(#liq-hero)"/>
      <ellipse cx="0" cy="-302.72" rx="132" ry="7" fill="#ffffff" opacity="0.18"/>
      <ellipse cx="-58.08" cy="-147.84" rx="52.800000000000004" ry="84.47999999999999" fill="#ffffff" opacity="0.1"/>
    </g>
    <path d="M -132 0 L -132 -196 Q -132 -300 0 -352 Q 132 -300 132 -196 L 132 0 Z" fill="url(#glass-hero)"/>
    <path d="M -132 0 L -132 -196 Q -132 -300 0 -352 Q 132 -300 132 -196 L 132 0 Z" fill="none" stroke="#ffffff" stroke-opacity="0.28" stroke-width="1.4"/>

    <!-- انعكاسات -->
    <g clip-path="url(#clip-hero)">
      <rect x="-95.03999999999999" y="-326" width="11" height="282" rx="5.5" fill="#ffffff" opacity="0.3"/>
      <rect x="-73.92" y="-298" width="5" height="202" rx="2.5" fill="#ffffff" opacity="0.18"/>
      <rect x="79.2" y="-312" width="6" height="242" rx="3" fill="#ffffff" opacity="0.12"/>
    </g>

    
  <g opacity="0.92">
    <rect x="-52" y="-189" width="104" height="78"
          rx="2" fill="none" stroke="#F0DFB6" stroke-opacity="0.5"/>
    <path d="M 0 -170 L 15 -153 L 0 -136 L -15 -153 Z"
          fill="none" stroke="#F0DFB6" stroke-opacity="0.9" stroke-width="1.5"/>
    <path d="M -22 -124 L 22 -124" stroke="#F0DFB6" stroke-opacity="0.45" stroke-width="1.2"/>
  </g>
  </g>
  <g transform="translate(450 973.125) scale(1.7448979591836735)">
    
    <clipPath id="clip-hero"><path d="M -132 0 L -132 -196 Q -132 -300 0 -352 Q 132 -300 132 -196 L 132 0 Z"/></clipPath>

    <!-- العنق -->
    <rect x="-32" y="-392" width="64" height="54" fill="url(#neck-hero)"/>
    <rect x="-32" y="-392" width="4" height="54" fill="#ffffff" opacity="0.35"/>

    <!-- الغطاء -->
    <path d="M -48 -392 L 48 -392 L 37.44 -484 Q 37.44 -490 31.439999999999998 -490 L -31.439999999999998 -490 Q -37.44 -490 -37.44 -484 Z" fill="url(#cap-hero)"/>
    <rect x="-48" y="-480" width="96" height="3" fill="#ffffff" opacity="0.28"/>
    <rect x="-53" y="-404" width="106" height="12" rx="2" fill="url(#cap-hero)"/>

    <!-- الزجاج والعطر -->
    <path d="M -132 0 L -132 -196 Q -132 -300 0 -352 Q 132 -300 132 -196 L 132 0 Z" fill="url(#empty-hero)"/>
    <g clip-path="url(#clip-hero)">
      <rect x="-260" y="-302.72" width="520" height="342.72" fill="url(#liq-hero)"/>
      <ellipse cx="0" cy="-302.72" rx="132" ry="7" fill="#ffffff" opacity="0.18"/>
      <ellipse cx="-58.08" cy="-147.84" rx="52.800000000000004" ry="84.47999999999999" fill="#ffffff" opacity="0.1"/>
    </g>
    <path d="M -132 0 L -132 -196 Q -132 -300 0 -352 Q 132 -300 132 -196 L 132 0 Z" fill="url(#glass-hero)"/>
    <path d="M -132 0 L -132 -196 Q -132 -300 0 -352 Q 132 -300 132 -196 L 132 0 Z" fill="none" stroke="#ffffff" stroke-opacity="0.28" stroke-width="1.4"/>

    <!-- انعكاسات -->
    <g clip-path="url(#clip-hero)">
      <rect x="-95.03999999999999" y="-326" width="11" height="282" rx="5.5" fill="#ffffff" opacity="0.3"/>
      <rect x="-73.92" y="-298" width="5" height="202" rx="2.5" fill="#ffffff" opacity="0.18"/>
      <rect x="79.2" y="-312" width="6" height="242" rx="3" fill="#ffffff" opacity="0.12"/>
    </g>

    
  <g opacity="0.92">
    <rect x="-52" y="-189" width="104" height="78"
          rx="2" fill="none" stroke="#F0DFB6" stroke-opacity="0.5"/>
    <path d="M 0 -170 L 15 -153 L 0 -136 L -15 -153 Z"
          fill="none" stroke="#F0DFB6" stroke-opacity="0.9" stroke-width="1.5"/>
    <path d="M -22 -124 L 22 -124" stroke="#F0DFB6" stroke-opacity="0.45" stroke-width="1.2"/>
  </g>
  </g>
</svg>
